<svg id="Grupo_44" data-name="Grupo 44" xmlns="http://www.w3.org/2000/svg" xmlns:xlink="http://www.w3.org/1999/xlink" width="76.278" height="93.857" viewBox="0 0 76.278 93.857">
  <defs>
    <clipPath id="clip-path">
      <rect id="Rectángulo_17" data-name="Rectángulo 17" width="76.278" height="93.857" fill="#fff"/>
    </clipPath>
  </defs>
  <g id="Grupo_44-2" data-name="Grupo 44" clip-path="url(#clip-path)">
    <path id="Trazado_6" data-name="Trazado 6" d="M74.705,61.918a9.916,9.916,0,0,0-7.246-8.578l-21.3-5.931V43.115a17.563,17.563,0,0,0,10.031-15.84,6.792,6.792,0,0,0,0-13.488V3.911H66.225a1.956,1.956,0,1,0,0-3.911H10.051a1.956,1.956,0,1,0,0,3.911h2.006V9.777c0,2.585,4.012,2.589,4.012,0V3.911h4.012v9.876a6.792,6.792,0,0,0,0,13.488,17.564,17.564,0,0,0,10.031,15.84v4.294L8.815,53.34a9.917,9.917,0,0,0-7.244,8.58C-.3,83.791.02,78.153.02,86.035a7.933,7.933,0,0,0,8.025,7.821H68.231a7.933,7.933,0,0,0,8.025-7.821c0-7.868.331-2.063-1.551-24.117m-4,.327,1.364,15.969H63.222c1.326-18.108,3.8-15.643-18.7-15.643.688-4.018,0-1.51,2.111-2.008,1.212-.282,1.053-.51,4.853-7.606L66.351,57.1A5.952,5.952,0,0,1,70.7,62.245M16.218,66.482h43.84L58.339,89.946h-40.4Zm20.6-10.107a1.991,1.991,0,0,0,2.078.362c.873-.346-.092-.825,2.4.919l-.841,4.916H35.825l-.841-4.916ZM47.541,51.86l-2.088,3.9L42.3,53.551l2.456-2.466ZM56.194,23.3V17.764a2.913,2.913,0,0,1,0,5.534m-4.012-9.611H24.095V3.911H52.182Zm-32.1,4.077V23.3a2.913,2.913,0,0,1,0-5.534m4.012,9.611V17.6H52.182v9.777a14.048,14.048,0,0,1-28.087,0M42.151,44.519v3.57l-4.012,4.03-4.012-4.03v-3.57a17.99,17.99,0,0,0,8.025,0M31.516,51.085l2.456,2.466-3.148,2.21-2.088-3.9ZM5.571,62.247A5.949,5.949,0,0,1,9.921,57.1l14.874-4.143c3.81,7.112,3.671,7.333,4.853,7.606,2.117.5,1.42-2.024,2.111,2.008-22.389,0-20.038-2.569-18.7,15.643H4.207ZM4.033,86.035V82.125h9.309l.574,7.821H8.045a3.967,3.967,0,0,1-4.012-3.911m68.211,0a3.967,3.967,0,0,1-4.012,3.911h-5.87l.574-7.821h9.309Z" transform="translate(0)" fill="#fff"/>
  </g>
</svg>
