<svg xmlns="http://www.w3.org/2000/svg" xmlns:xlink="http://www.w3.org/1999/xlink" width="102.829" height="95.64" viewBox="0 0 102.829 95.64">
  <defs>
    <clipPath id="clip-path">
      <rect id="Rectángulo_21" data-name="Rectángulo 21" width="102.829" height="95.64" fill="#fff"/>
    </clipPath>
  </defs>
  <g id="Grupo_50" data-name="Grupo 50" clip-path="url(#clip-path)">
    <path id="Trazado_31" data-name="Trazado 31" d="M102.7,195.964l-6.014-12.61a1.321,1.321,0,0,0-1.192-.752H79.741a1.321,1.321,0,1,0,0,2.641H94.66l4.754,9.968h-96l4.754-9.968h15.8a1.321,1.321,0,0,0,0-2.641H7.335a1.321,1.321,0,0,0-1.192.752L.128,195.964a1.321,1.321,0,0,0,1.192,1.889H101.507a1.321,1.321,0,0,0,1.192-1.889" transform="translate(0 -102.213)" fill="#fff"/>
    <path id="Trazado_32" data-name="Trazado 32" d="M143.4,142.679a1.319,1.319,0,0,0,1.683.808,78.481,78.481,0,0,1,15.1-3.252,5.737,5.737,0,0,1,4.785,3.348,2.635,2.635,0,0,1-.312,2.979c-1.527,1.672-5.016,3.732-9.823,5.8a1.321,1.321,0,1,0,1.044,2.427c3.639-1.565,8.455-3.954,10.73-6.444a5.194,5.194,0,0,0,.778-5.826,8.323,8.323,0,0,0-7.2-4.923A78.51,78.51,0,0,0,144.2,141a1.32,1.32,0,0,0-.808,1.683" transform="translate(-80.225 -77.019)" fill="#fff"/>
    <path id="Trazado_33" data-name="Trazado 33" d="M143.471,152.562a1.331,1.331,0,0,0-1.415-1.219c-6.344.471-13.591,4.5-18.882,7.435a1.321,1.321,0,1,0,1.283,2.31c5.077-2.82,12.03-6.682,17.795-7.11a1.321,1.321,0,0,0,1.22-1.415" transform="translate(-68.567 -84.714)" fill="#fff"/>
    <path id="Trazado_34" data-name="Trazado 34" d="M118.754,90.241a1.321,1.321,0,1,0,1.076,2.413c3.318-1.48,5.44-3.461,6.309-5.889a7.238,7.238,0,0,0-.192-5.341,1.321,1.321,0,0,0-2.077-.38,5.155,5.155,0,0,1-3.62,1.1,1.321,1.321,0,0,0-.249,2.63,7.585,7.585,0,0,0,3.913-.68,4.591,4.591,0,0,1-.262,1.781c-.616,1.723-2.264,3.192-4.9,4.366" transform="translate(-66.035 -45.17)" fill="#fff"/>
    <path id="Trazado_35" data-name="Trazado 35" d="M82.565,96.531a1.319,1.319,0,0,0,1.732.7c7.3-3.111,10.849-8.182,11.131-10.205.349-2.51,1.157-4.113,2.216-4.4a1.321,1.321,0,1,0-.685-2.551c-2.2.589-3.632,2.867-4.148,6.585-.08.576-1.323,2.678-4.02,4.851l-.97-9.377a1.32,1.32,0,1,0-2.627.272l1.12,10.832A24.549,24.549,0,0,1,83.261,94.8a1.321,1.321,0,0,0-.7,1.733" transform="translate(-46.157 -44.796)" fill="#fff"/>
    <path id="Trazado_36" data-name="Trazado 36" d="M63.7,83.6a121.215,121.215,0,0,1-15.63,1.2,22.935,22.935,0,0,1,1.682-3.056,1.321,1.321,0,0,0-2.19-1.477,29.975,29.975,0,0,0-2.721,5.372,1.321,1.321,0,0,0,1.189,1.785c.093,0,.665.022,1.644.022a123.17,123.17,0,0,0,21.689-2.1,1.313,1.313,0,0,0,.629-.311,122.923,122.923,0,0,0,23.275,2.407c.988,0,1.574-.019,1.685-.023a1.321,1.321,0,0,0,1.189-1.785c-.718-1.9-3.316-8.137-6.649-8.437a17.445,17.445,0,0,0-4.774.572,27.683,27.683,0,0,1-7.694.794c-1.909-.135-5.512-2.137-9.327-4.257C61.913,71.1,54.719,67.1,48.366,66.628a1.321,1.321,0,1,0-.2,2.634c5.773.429,12.685,4.271,18.239,7.357,4.431,2.462,7.93,4.407,10.423,4.584a30.283,30.283,0,0,0,8.411-.841,16.058,16.058,0,0,1,4.008-.529c.768.069,2.327,2.045,3.672,4.966A122.551,122.551,0,0,1,64.56,81.094c-14.887-3.827-24.5-8.671-27.132-11.552a2.635,2.635,0,0,1-.312-2.978A5.738,5.738,0,0,1,41.9,63.215c3.913,0,12.374,1.919,15.34,2.621.646.153,2.326.352,2.623-.608.621-1.616,1.731-6.727,1.732-6.765a39.432,39.432,0,0,0,3.277-2.822A61.676,61.676,0,0,0,70.154,49.9a1.321,1.321,0,0,0-2.072-1.638A59.9,59.9,0,0,1,63.05,53.73c-3.555,3.39-6.629,5.27-8.656,5.293h-.009a2.408,2.408,0,0,1-2.057-2.16c-.1-1.4,1.776-21.142,2.853-24.455.367-1.129,2.939-2.6,6.068-3.859a26.518,26.518,0,0,0,16.981,6.377,26.733,26.733,0,0,0,8.158-1.308c1.153,2.371,3.041,6.761,4.628,11.014C93.57,51.476,94.247,54.994,94.028,56c-.516,2.38-7.043,3.735-10.181,4.385-.669.139-1.276.265-1.787.384l-.07.019a22.631,22.631,0,0,0-4.17,1.766,10.877,10.877,0,0,1-2.688,1.117,10.29,10.29,0,0,1-6.83-.836,9.553,9.553,0,0,0,3.057-2.82,1.321,1.321,0,1,0-2.206-1.454,8.417,8.417,0,0,1-3.836,2.8,1.321,1.321,0,0,0-.549,2.159,11.37,11.37,0,0,0,8.051,3.024,14.946,14.946,0,0,0,2.808-.274,12.849,12.849,0,0,0,3.4-1.362,20.356,20.356,0,0,1,3.67-1.571c.485-.111,1.058-.231,1.688-.361,4.518-.938,11.346-2.354,12.225-6.413.964-4.453-6.583-21.74-8.347-25.093-.486-1.327-1.86-2.581-4.192-3.829a1.321,1.321,0,1,0-1.247,2.329,12.116,12.116,0,0,1,2.066,1.339,23.384,23.384,0,0,1-20.744-3.814c.77-.252,1.543-.484,2.3-.689a1.32,1.32,0,0,0,.976-1.265l.035-4.792a7.273,7.273,0,0,0,2.979,1,7.437,7.437,0,0,0,3.083-1.063l.036,4.851a1.322,1.322,0,0,0,.976,1.266c.021,0,2.062.56,4.434,1.455a1.32,1.32,0,1,0,.932-2.471c-1.493-.564-2.846-.995-3.708-1.254L76.144,18.7a6.167,6.167,0,0,0,1.938-4.238c0-.512.008-1.082.017-1.686.07-4.906-.005-8.792-1.635-10.454C74.214.025,70.587,0,70.434,0S66.653.025,64.4,2.322C62.773,3.983,62.7,7.868,62.768,12.774c.008.6.017,1.174.017,1.687A6.232,6.232,0,0,0,64.828,18.8l-.042,5.727c-3.149.927-10.979,3.556-12.118,7.061C51.495,35.2,49.481,55.5,49.707,57.186a5.052,5.052,0,0,0,4.678,4.478h.039a9.253,9.253,0,0,0,4.1-1.2c-.245.956-.543,1.969-.794,2.777-3.151-.748-11.643-2.663-15.828-2.663A8.324,8.324,0,0,0,34.7,65.5a5.194,5.194,0,0,0,.779,5.826C39.045,75.229,50.37,80.151,63.7,83.6M66.289,4.171a6.378,6.378,0,0,1,8.29,0c.988,1.009.918,5.925.88,8.568-.009.617-.017,1.2-.017,1.723,0,2.587-4.181,4.611-5,4.649-.834-.038-5.014-2.063-5.014-4.649,0-.524-.008-1.107-.017-1.725-.038-2.641-.109-7.558.88-8.566" transform="translate(-19.118 0.001)" fill="#fff"/>
    <path id="Trazado_37" data-name="Trazado 37" d="M113.413,103.267a1.321,1.321,0,0,0,1.845.287c.977-.714,3-.05,4.627.484.3.1.594.2.872.28a6.749,6.749,0,0,0,1.981.276c3.564,0,7.779-2.273,9.3-4.259a1.32,1.32,0,0,0,.206-1.21L128.264,86.9a1.344,1.344,0,0,0-.081-.185c.28-1.8.487-3.006.494-3.046a1.321,1.321,0,0,0-2.6-.453c-.093.539-2.168,12.565-2.1,18.624a5.274,5.274,0,0,1-2.441-.042c-.262-.081-.538-.171-.824-.265-2.084-.684-4.938-1.623-7.01-.107a1.321,1.321,0,0,0-.287,1.845m13.933-10.652,2.144,6.593a11.315,11.315,0,0,1-2.873,1.781c.043-2.335.359-5.438.73-8.373" transform="translate(-63.342 -45.966)" fill="#fff"/>
  </g>
</svg>
