<svg id="Grupo_45" data-name="Grupo 45" xmlns="http://www.w3.org/2000/svg" xmlns:xlink="http://www.w3.org/1999/xlink" width="100" height="100" viewBox="0 0 100 100">
  <defs>
    <clipPath id="clip-path">
      <rect id="Rectángulo_18" data-name="Rectángulo 18" width="100" height="100" fill="#fff"/>
    </clipPath>
  </defs>
  <g id="Grupo_45-2" data-name="Grupo 45" transform="translate(0 0)" clip-path="url(#clip-path)">
    <path id="Trazado_7" data-name="Trazado 7" d="M15.178,33.42c0,5.769-.462,7.469,1.289,8.2s1.9-.073,10.02-8.2H40.243a4.182,4.182,0,0,0,4.178-4.178V25.065h5.548c1.257,1.406,3.551,3.7,7.595,7.743a2.088,2.088,0,0,0,2.277.453c1.769-.733,1.291-2.266,1.291-8.2a4.2,4.2,0,0,0,4.178-4.178V4.178A4.182,4.182,0,0,0,61.13,0H36.065a4.182,4.182,0,0,0-4.178,4.178V8.355H15.178A4.182,4.182,0,0,0,11,12.533v16.71a4.182,4.182,0,0,0,4.178,4.178M36.065,4.178H61.13v16.71c-3.954,0-4.09-.758-4.163,5.416-5.176-5.176-5.126-5.416-6.281-5.416H44.42V12.533a4.182,4.182,0,0,0-4.178-4.178H36.065ZM15.178,12.533l25.065.006v16.7c-15.605,0-15.227-.259-16.1.612l-4.79,4.79V31.331a2.09,2.09,0,0,0-2.089-2.089H15.178Z" transform="translate(12.067 -0.715)" fill="#fff"/>
    <path id="Trazado_8" data-name="Trazado 8" d="M22.131,11.5a2.086,2.086,0,1,0-4.094,0,2.086,2.086,0,0,0,4.094,0" transform="translate(19.694 9.095)" fill="#fff"/>
    <path id="Trazado_9" data-name="Trazado 9" d="M21.166,11.869a2.084,2.084,0,1,0,0-1.587,1.987,1.987,0,0,0,0,1.587" transform="translate(22.956 9.097)" fill="#fff"/>
    <path id="Trazado_10" data-name="Trazado 10" d="M19.178,11.072a2.089,2.089,0,0,0-4.178,0c0,2.841,4.178,2.682,4.178,0" transform="translate(16.422 9.1)" fill="#fff"/>
    <path id="Trazado_11" data-name="Trazado 11" d="M31.581,5.619a2.1,2.1,0,0,0-2.966,2.966,2.1,2.1,0,0,0,2.966-2.966" transform="translate(30.567 4.716)" fill="#fff"/>
    <path id="Trazado_12" data-name="Trazado 12" d="M33.087,9.166A2.092,2.092,0,1,0,31.6,5.594a2.091,2.091,0,0,0,1.483,3.572" transform="translate(33.844 4.74)" fill="#fff"/>
    <path id="Trazado_13" data-name="Trazado 13" d="M19,34.444A10.444,10.444,0,1,0,29.444,24,10.456,10.456,0,0,0,19,34.444m16.71,0a6.266,6.266,0,1,1-6.266-6.266,6.274,6.274,0,0,1,6.266,6.266" transform="translate(20.777 25.415)" fill="#fff"/>
    <path id="Trazado_14" data-name="Trazado 14" d="M89.817,33.024c-5.974,0-4.43-.612-8.355,3.313-4-4-2.415-3.313-8.355-3.313a10.423,10.423,0,0,0-9.945,7.423,10.3,10.3,0,0,0-4.677-1.157c-5.974,0-4.43-.612-8.355,3.313-4-4-2.415-3.313-8.355-3.313A10.3,10.3,0,0,0,37.1,40.447a10.423,10.423,0,0,0-9.945-7.423c-5.974,0-4.43-.612-8.355,3.313-4-4-2.415-3.313-8.355-3.313A10.456,10.456,0,0,0,0,43.468V56a2.09,2.09,0,0,0,2.089,2.089H31.331v4.178a2.09,2.09,0,0,0,2.089,2.089H66.84a2.09,2.09,0,0,0,2.089-2.089V58.089H98.172A2.09,2.09,0,0,0,100.261,56V43.468A10.456,10.456,0,0,0,89.817,33.024M4.178,53.911V43.468A6.274,6.274,0,0,1,10.444,37.2h3.313l3.566,3.566a2.086,2.086,0,0,0,2.954,0L23.841,37.2h3.313a6.274,6.274,0,0,1,6.266,6.266c0,.4-2.089,2.273-2.089,6.266v4.178Zm60.574,6.266H35.509V49.734a6.274,6.274,0,0,1,6.266-6.266h3.313l3.566,3.566a2.086,2.086,0,0,0,2.954,0l3.566-3.566h3.313a6.274,6.274,0,0,1,6.266,6.266Zm31.331-6.266H68.929V49.734a10.925,10.925,0,0,0-2.089-6.266A6.274,6.274,0,0,1,73.107,37.2h3.313l3.566,3.566a2.086,2.086,0,0,0,2.954,0L86.5,37.2h3.313a6.274,6.274,0,0,1,6.266,6.266Z" transform="translate(0.091 35.19)" fill="#fff"/>
    <path id="Trazado_15" data-name="Trazado 15" d="M34,31.444A10.444,10.444,0,1,0,44.444,21,10.456,10.456,0,0,0,34,31.444m10.444-6.266a6.266,6.266,0,1,1-6.266,6.266,6.274,6.274,0,0,1,6.266-6.266" transform="translate(37.109 22.149)" fill="#fff"/>
    <path id="Trazado_16" data-name="Trazado 16" d="M14.444,41.888A10.444,10.444,0,1,0,4,31.444,10.456,10.456,0,0,0,14.444,41.888m0-16.71a6.266,6.266,0,1,1-6.266,6.266,6.274,6.274,0,0,1,6.266-6.266" transform="translate(4.446 22.149)" fill="#fff"/>
  </g>
</svg>
