<svg id="Grupo_54" data-name="Grupo 54" xmlns="http://www.w3.org/2000/svg" xmlns:xlink="http://www.w3.org/1999/xlink" width="100" height="100" viewBox="0 0 100 100">
  <defs>
    <clipPath id="clip-path">
      <rect id="Rectángulo_25" data-name="Rectángulo 25" width="100" height="100" fill="#fff"/>
    </clipPath>
  </defs>
  <g id="Grupo_54-2" data-name="Grupo 54" transform="translate(0 0)" clip-path="url(#clip-path)">
    <path id="Trazado_49" data-name="Trazado 49" d="M50.185,0A49.643,49.643,0,0,0,21.056,9.366l-6.11-6.11A4.263,4.263,0,0,0,7.889,4.924L2.349,21.537A6.511,6.511,0,0,0,8.505,30.1a6.587,6.587,0,0,0,2.074-.339l16.615-5.536a4.261,4.261,0,0,0,1.666-7.056l-4.93-4.932A45.7,45.7,0,0,1,50.185,4.015a46.17,46.17,0,1,1-46.17,46.17H0A50.185,50.185,0,1,0,50.185,0m-24.1,20.245a.237.237,0,0,1-.163.179L9.31,25.962a2.492,2.492,0,0,1-3.152-3.154L11.7,6.193a.225.225,0,0,1,.179-.163.245.245,0,0,1,.064-.008.225.225,0,0,1,.167.072L26.024,20.014a.23.23,0,0,1,.064.231" transform="translate(-0.05 0.044)" fill="#fff"/>
    <path id="Trazado_50" data-name="Trazado 50" d="M17.131,59.589,30.26,46.461a10.032,10.032,0,1,0,7.534-18.2V12H33.779V28.262a10.018,10.018,0,0,0-6.357,15.361L14.293,56.751ZM35.786,32.074A6.022,6.022,0,1,1,29.764,38.1a6.03,6.03,0,0,1,6.022-6.022" transform="translate(14.349 12.133)" fill="#fff"/>
    <path id="Trazado_51" data-name="Trazado 51" d="M25,67.155A42.2,42.2,0,0,0,67.155,25H63.14A38.183,38.183,0,0,1,25,63.14Z" transform="translate(25.135 25.229)" fill="#fff"/>
  </g>
</svg>
