<svg id="Grupo_52" data-name="Grupo 52" xmlns="http://www.w3.org/2000/svg" xmlns:xlink="http://www.w3.org/1999/xlink" width="100" height="100" viewBox="0 0 100 100">
  <defs>
    <clipPath id="clip-path">
      <rect id="Rectángulo_24" data-name="Rectángulo 24" width="100" height="100" fill="#fff"/>
    </clipPath>
  </defs>
  <g id="Grupo_53" data-name="Grupo 53" transform="translate(0 0)" clip-path="url(#clip-path)">
    <path id="Trazado_46" data-name="Trazado 46" d="M56.17,66.572H43.688v-2.08a6.249,6.249,0,0,0-6.241-6.241V53.462a30.614,30.614,0,0,0,15.825-8.511,1.584,1.584,0,0,0,.522-1.017,1.162,1.162,0,0,0,0-.884,1.526,1.526,0,0,0-.524-1.038c-.04-.04.5.5-4.494-4.494C61.163,22.67,50.518,0,31.206,0A22.779,22.779,0,0,0,16.572,5.309L12.081.818a2.128,2.128,0,0,0-2.942,0C-8.415,18.372.653,48.506,24.965,53.462v4.789a6.249,6.249,0,0,0-6.241,6.241v2.08h-5.2A9.335,9.335,0,0,0,7.71,83.215a9.335,9.335,0,0,0,5.813,16.643H56.17a2.08,2.08,0,0,0,2.08-2.08V68.653a2.08,2.08,0,0,0-2.08-2.08M24.2,40.235a19.8,19.8,0,0,0-.058-5.428c-.739-3.472,3.674-4.3,5.089.04.7,2.124,2.625,2.665,3.9,3.021,1.7.476,2.453.655,1.983,3.322A18.555,18.555,0,0,1,24.2,40.235m15.178-.53c-.2-5.026-3.994-5.282-6.2-6.154-3.035-9.318-14.927-6.474-13.115,2.12a10,10,0,0,1,.11,2.311,18.683,18.683,0,0,1-7.668-14.548C15.988,26.117,22.341,25.4,22.959,18c.164-1.943.512-2.091,3.763-3.358,2.709-1.055,5.781-2.249,7.446-5.107a6.412,6.412,0,0,0,.668-5.014,18.6,18.6,0,0,1,6.788,2.817c-4.394,3.7-7.883,6.584-9.15,12.511-1.213,5.659,4.625,9.021,9.52,6.907,1.433,2.453.576,5.781,4.242,7.244a18.791,18.791,0,0,1-6.859,5.7M30.184,4.213C32.5,7.589,28.992,9.3,25.212,10.764c-8.552,3.341-5.293,6.67-7.065,9.3a2.7,2.7,0,0,1-2.234.52c-1.408-.337-2.147-2.008-2.526-3.435a18.743,18.743,0,0,1,16.8-12.94m18.2,26.1a3.053,3.053,0,0,1-.9-.283c-.736-1.254-1.379-8.7-6.343-7.444-.381.1-2.332,1.315-3.994.1-2.255-1.652,1.7-7.77,4.654-10.038,1.182-.909,2.214-1.951,3.037-2.555a18.628,18.628,0,0,1,3.543,20.217M4.161,22.884A26.876,26.876,0,0,1,10.685,5.3l2.946,2.946C1.053,23.336,12.175,45.768,31.206,45.768a23,23,0,0,0,14.633-5.309l2.948,2.946C31.3,58.394,4.161,45.906,4.161,22.884m24.965,31.1a20.73,20.73,0,0,0,4.161,0v4.263H29.125ZM22.884,64.492a2.082,2.082,0,0,1,2.08-2.08H37.447a2.082,2.082,0,0,1,2.08,2.08v2.08H22.884ZM8.322,75.934a5.207,5.207,0,0,1,5.2-5.2H54.09v10.4H13.523a5.207,5.207,0,0,1-5.2-5.2M54.09,95.7H13.523a5.2,5.2,0,1,1,0-10.4H54.09Z" transform="translate(0.091 -0.313)" fill="#fff"/>
    <path id="Trazado_47" data-name="Trazado 47" d="M65.367,20H32.08A2.08,2.08,0,0,0,30,22.08V76.17a2.08,2.08,0,0,0,2.08,2.08H65.367a2.08,2.08,0,0,0,2.08-2.08V22.08A2.08,2.08,0,0,0,65.367,20M34.161,34.563H46.643V63.688H34.161Zm16.643,0H63.286V63.688H50.8ZM63.286,30.4H50.8V24.161H63.286Zm-16.643,0H34.161V24.161H46.643ZM34.161,67.849H46.643V74.09H34.161Zm16.643,0H63.286V74.09H50.8Z" transform="translate(32.502 21.295)" fill="#fff"/>
    <path id="Trazado_48" data-name="Trazado 48" d="M42,31.072V47.716a2.08,2.08,0,0,0,4.161,0V31.072a2.08,2.08,0,0,0-4.161,0" transform="translate(45.467 31.026)" fill="#fff"/>
  </g>
</svg>
