<svg xmlns="http://www.w3.org/2000/svg" width="98.559" height="98.243" viewBox="0 0 98.559 98.243">
  <g id="Grupo_46" data-name="Grupo 46" transform="translate(1.461 1.5)">
    <g id="Grupo_48" data-name="Grupo 48" transform="translate(0 0)">
      <path id="Trazado_17" data-name="Trazado 17" d="M73.659,29H3A31.163,31.163,0,0,0,21.7,57.561v4.69a4.155,4.155,0,0,0,4.156,4.156H50.8a4.155,4.155,0,0,0,4.156-4.156v-4.69A31.163,31.163,0,0,0,73.659,29Z" transform="translate(1.156 28.836)" fill="none" stroke="#fff" stroke-linejoin="round" stroke-width="3"/>
      <line id="Línea_4" data-name="Línea 4" x2="26.786" transform="translate(22.922 86.607)" fill="none" stroke="#fff" stroke-linejoin="round" stroke-width="3"/>
      <path id="Trazado_18" data-name="Trazado 18" d="M11.37,49.288a35.789,35.789,0,0,0-5.885-8.874,26.183,26.183,0,0,1-3.367-4.109,4.784,4.784,0,0,1-.372-4.72c.962-1.744,3.423-3.057,3.392-4.948a4.474,4.474,0,0,0-1.043-2.332C2.361,21.829.466,19.121,1.139,16.357a7.889,7.889,0,0,1,3.886-4.524,12.536,12.536,0,0,1,9.743-1.372c4.09,1.3,5.921,4.921,9.144,7.255a4.419,4.419,0,0,0,1.459.752,6.864,6.864,0,0,0,3.155-.222,21.8,21.8,0,0,1,10.09-.172c3.23.862,5.985,3.134,6.035,5.759a5.953,5.953,0,0,0,.087,1.893,5.67,5.67,0,0,0,1.86,2.051c2.359,2.028,3.793,4.942,2.631,7.513a34.473,34.473,0,0,1-1.9,2.941,2.963,2.963,0,0,0-.239,3.171,8.215,8.215,0,0,0,1.793,1.569,4.741,4.741,0,0,1,1.993,3.371,3.378,3.378,0,0,1-2.263,3.144" transform="translate(-1 8.35)" fill="none" stroke="#fff" stroke-linejoin="round" stroke-width="3"/>
      <path id="Trazado_19" data-name="Trazado 19" d="M22.547,41.938A43.726,43.726,0,0,0,8,17" transform="translate(6.547 15.897)" fill="none" stroke="#fff" stroke-linejoin="round" stroke-width="3"/>
      <path id="Trazado_20" data-name="Trazado 20" d="M33.017,19C24.7,19,20.547,29.391,20.547,29.391S8.078,25.235,6,27.313" transform="translate(4.391 18.054)" fill="none" stroke="#fff" stroke-linejoin="round" stroke-width="3"/>
      <path id="Trazado_21" data-name="Trazado 21" d="M47.86,38.7A18.7,18.7,0,0,0,29.156,20H25" transform="translate(24.877 19.132)" fill="none" stroke="#fff" stroke-linejoin="round" stroke-width="3"/>
      <path id="Trazado_22" data-name="Trazado 22" d="M51.7,40.251a14.468,14.468,0,0,1-.484-6.415A24.124,24.124,0,0,1,52.643,30.2,16.654,16.654,0,0,0,53.8,22.765a22.5,22.5,0,0,1-.175-2.988c.1-1.7.848-3.313.777-5.011a6.551,6.551,0,0,0-4.327-5.532,8.526,8.526,0,0,0-5.266-.3c-1.376.366-2.712,1.081-4.123.989C39,9.814,37.565,8.581,36.015,7.835a8.7,8.7,0,0,0-8.521.611c-1.253.829-2.377,2.008-3.811,2.326-1.592.353-3.379-.411-4.8.449a4.014,4.014,0,0,0-1.467,1.854c-1.047,2.342.075,6.328,1.426,8.473" transform="translate(16.252 5.115)" fill="none" stroke="#fff" stroke-linejoin="round" stroke-width="3"/>
      <path id="Trazado_23" data-name="Trazado 23" d="M28.078,29.7S32.235,17.235,26,11" transform="translate(25.955 9.428)" fill="none" stroke="#fff" stroke-linejoin="round" stroke-width="3"/>
      <line id="Línea_5" data-name="Línea 5" y1="4.464" x2="8.036" transform="translate(55.958 26.786)" fill="none" stroke="#fff" stroke-linejoin="round" stroke-width="3"/>
      <rect id="Rectángulo_19" data-name="Rectángulo 19" width="28.571" height="8.036" transform="translate(60.422)" fill="none" stroke="#fff" stroke-linejoin="round" stroke-width="3"/>
      <path id="Trazado_24" data-name="Trazado 24" d="M53.86,5V19.547l10.391,22.86V92.284H31" transform="translate(31.346 2.959)" fill="none" stroke="#fff" stroke-linejoin="round" stroke-width="3"/>
      <line id="Línea_6" data-name="Línea 6" x2="14.286" transform="translate(79.172 51.786)" fill="none" stroke="#fff" stroke-linejoin="round" stroke-width="3"/>
      <line id="Línea_7" data-name="Línea 7" x2="25" transform="translate(70.243 84.821)" fill="none" stroke="#fff" stroke-linejoin="round" stroke-width="3"/>
      <line id="Línea_8" data-name="Línea 8" x1="8.929" transform="translate(76.493 22.321)" fill="none" stroke="#fff" stroke-linejoin="round" stroke-width="3"/>
    </g>
  </g>
</svg>
